<?xml version="1.0" standalone="no"?>
<!DOCTYPE svg PUBLIC "-//W3C//DTD SVG 20010904//EN"
 "http://www.w3.org/TR/2001/REC-SVG-20010904/DTD/svg10.dtd">
<svg version="1.0" xmlns="http://www.w3.org/2000/svg"
 width="200.000000pt" height="200.000000pt" viewBox="0 0 200.000000 200.000000"
 preserveAspectRatio="xMidYMid meet">
<metadata>
Created by potrace 1.14, written by Peter Selinger 2001-2017
</metadata>
<g transform="translate(0.000000,200.000000) scale(0.100000,-0.100000)"
fill="#000000" stroke="none">
<path d="M863 1901 c-62 -23 -94 -44 -150 -103 -44 -45 -86 -121 -98 -175 l-6
-32 -42 16 c-23 8 -74 15 -113 15 -174 0 -299 -131 -311 -326 -6 -91 6 -162
38 -231 l21 -45 -36 -65 c-20 -36 -51 -81 -70 -100 -103 -103 -57 -293 77
-322 27 -6 27 -6 26 -79 -2 -92 17 -128 86 -164 46 -23 60 -25 224 -29 162 -3
177 -5 190 -23 27 -40 77 -51 250 -56 200 -6 288 7 335 48 l32 28 174 4 c154
3 181 6 222 25 67 31 88 69 88 160 l0 71 36 12 c20 7 51 26 70 42 69 61 72
193 5 271 -15 17 -46 67 -69 110 l-42 78 27 52 c36 70 45 216 17 303 -24 79
-86 151 -157 188 -70 36 -176 45 -249 23 -51 -16 -58 -14 -58 17 0 39 -59 146
-107 194 -27 27 -75 61 -108 77 -79 39 -220 46 -302 16z m217 -102 c64 -19
131 -78 165 -144 27 -53 30 -68 30 -149 -1 -107 -19 -152 -92 -227 l-44 -46
64 -99 c36 -54 84 -141 107 -191 24 -51 48 -93 55 -93 16 0 41 -30 48 -59 9
-36 -9 -69 -48 -88 -33 -16 -37 -16 -70 0 -41 20 -57 53 -46 94 7 25 0 44 -41
122 -28 50 -52 90 -55 88 -2 -2 1 -24 6 -48 16 -66 12 -156 -13 -349 l-23
-175 22 -17 c56 -44 32 -88 -49 -88 -68 0 -85 16 -68 64 7 18 12 83 12 144 l0
112 -46 0 -45 0 4 -117 c3 -65 8 -133 12 -152 5 -24 4 -36 -6 -42 -16 -10
-100 -12 -123 -3 -24 9 -19 52 9 78 l25 23 -26 199 c-24 186 -25 232 -9 339 6
36 2 32 -44 -50 -44 -79 -50 -95 -45 -130 10 -74 -59 -125 -124 -91 -32 17
-42 34 -42 75 0 31 25 71 45 71 8 0 34 42 58 94 25 52 73 137 106 189 34 51
61 97 61 100 0 4 -17 23 -38 41 -21 19 -51 61 -67 93 -58 115 -33 273 56 362
70 71 182 99 279 70z m-525 -312 c116 -64 148 -254 62 -368 -18 -23 -36 -47
-41 -54 -6 -8 2 -31 23 -68 l32 -56 -28 -15 c-106 -54 -131 -183 -50 -259 l31
-29 -11 -76 c-11 -72 -10 -78 8 -95 35 -32 21 -52 -36 -52 l-50 0 4 117 3 118
-35 0 -35 0 -4 -87 c-2 -49 0 -96 5 -106 15 -32 1 -47 -46 -47 -59 0 -74 18
-46 53 20 26 20 28 3 159 -9 72 -14 161 -11 196 l5 64 -32 -54 c-25 -41 -32
-62 -28 -89 3 -30 -1 -40 -19 -53 -13 -9 -32 -16 -43 -16 -54 0 -78 83 -32
113 13 9 38 43 55 77 18 34 50 91 72 126 21 36 39 68 39 72 0 5 -12 19 -26 33
-124 115 -78 365 75 414 54 17 101 11 156 -18z m1046 2 c89 -27 149 -112 149
-212 0 -70 -16 -112 -65 -166 l-37 -41 54 -97 c30 -54 62 -117 72 -140 10 -23
24 -44 32 -47 7 -3 20 -16 29 -29 20 -31 6 -72 -27 -83 -51 -17 -90 12 -87 65
2 24 -8 57 -29 96 l-31 60 6 -95 c4 -66 0 -128 -11 -203 -17 -105 -17 -108 3
-133 31 -39 18 -55 -43 -52 l-51 3 4 108 3 108 -37 -3 -38 -3 2 -80 c2 -44 4
-91 5 -105 1 -23 -3 -25 -50 -28 -60 -3 -74 13 -43 51 18 23 18 31 7 100 l-11
75 30 26 c40 34 57 76 51 130 -7 55 -38 101 -89 126 -21 11 -39 23 -39 27 0 3
14 30 30 60 36 64 37 70 6 94 -14 11 -37 44 -52 75 -23 47 -26 63 -21 115 7
85 46 144 116 181 57 30 102 35 162 17z"/>
<path d="M852 1614 c-47 -33 -9 -107 46 -88 33 11 43 62 17 88 -20 20 -35 20
-63 0z"/>
<path d="M1076 1614 c-24 -24 -20 -61 9 -80 23 -15 27 -15 50 0 46 30 26 96
-29 96 -8 0 -22 -7 -30 -16z"/>
<path d="M902 1401 c-24 -15 -9 -55 28 -74 43 -22 111 -18 148 10 33 25 37 37
17 57 -15 14 -19 14 -45 1 -37 -19 -81 -19 -106 0 -22 17 -25 17 -42 6z"/>
</g>
</svg>
